<svg xmlns="http://www.w3.org/2000/svg" width="480" height="320" viewBox="0 0 480 320" fill="none" stroke="#fff" stroke-width="1">
  <path d="M0 80h480M0 240h480M80 0v320M240 0v320M400 0v320" opacity=".2"/>
  <path d="M46 44h40l22 22v50H46ZM86 44v22h22M58 80h36M58 94h24M200 42h64v64h-64ZM218 60h28v28h-28ZM360 42l40 20v42l-40 28-40-28V62ZM344 83l12 12 25-30M50 218h56v46H50ZM58 230h40M58 244h28M216 204l34 20-10 40h-48l-10-40ZM216 204v30M182 224l34 10 34-10M192 264l24-30 24 30M330 214h68v42h-68ZM330 218l34 24 34-24"/>
  <path d="M151 77h10M156 72v10M307 157h10M312 152v10M75 157h10M80 152v10M395 287h10M400 282v10"/>
</svg>
